# This file uses centimeters as units for non-parametric coordinates.

mtllib prototype bot player model.mtl
g default
v -7.550045 0.000000 4.050045
v -7.550045 0.449955 4.500000
v -8.000000 0.449955 4.050045
v 8.000000 0.449955 4.050045
v 7.550045 0.449955 4.500000
v 7.550045 0.000000 4.050045
v -8.000000 23.550045 4.050045
v -7.550045 23.550045 4.500000
v -7.550045 24.000000 4.050045
v 7.550045 24.000000 4.050045
v 7.550045 23.550045 4.500000
v 8.000000 23.550045 4.050045
v -8.000000 23.550045 -4.050045
v -7.550045 24.000000 -4.050045
v -7.550045 23.550045 -4.500000
v 7.550045 23.550045 -4.500000
v 7.550045 24.000000 -4.050045
v 8.000000 23.550045 -4.050045
v -8.000000 0.449955 -4.050045
v -7.550045 0.449955 -4.500000
v -7.550045 0.000000 -4.050045
v 7.550045 0.000000 -4.050045
v 7.550045 0.449955 -4.500000
v 8.000000 0.449955 -4.050045
v -3.632540 24.000000 3.622965
v -3.632540 24.158697 3.781662
v -3.791238 24.158697 3.622965
v -2.390832 24.164175 3.781662
v -2.274743 24.000000 3.631794
v -2.158653 24.164175 3.781662
v -3.632540 31.423773 3.781662
v -3.632540 31.582472 3.622965
v -3.791238 31.423773 3.622965
v -2.158653 31.418295 3.781662
v -2.274743 31.582472 3.631794
v -2.390832 31.418295 3.781662
v -3.791238 31.423773 -3.642115
v -3.632540 31.582472 -3.642115
v -3.632540 31.423773 -3.800813
v 3.632540 31.423773 -3.800813
v 3.632540 31.582472 -3.642115
v 3.791238 31.423773 -3.642115
v -3.791238 24.158697 -3.642115
v -3.632540 24.158697 -3.800813
v -3.632540 24.000000 -3.642115
v 3.632540 24.000000 -3.642115
v 3.632540 24.158697 -3.800813
v 3.791238 24.158697 -3.642115
v -3.627062 26.011703 3.781662
v -3.791238 25.895618 3.631794
v -3.627062 25.779526 3.781662
v 3.632540 24.000000 3.622965
v 3.791238 24.158697 3.622965
v 3.632540 24.158697 3.781662
v 3.627062 25.779526 3.781662
v 3.791238 25.895618 3.631794
v 3.627062 26.011703 3.781662
v 3.632540 31.423773 3.781662
v 3.791238 31.423773 3.622965
v 3.632540 31.582472 3.622965
v 3.627062 27.675146 3.781662
v 3.791238 27.791237 3.631794
v 3.627062 27.907326 3.781662
v 3.627062 29.570765 3.781662
v 3.791238 29.686850 3.631794
v 3.627062 29.802942 3.781662
v -3.627062 27.907326 3.781662
v -3.791238 27.791237 3.631794
v -3.627062 27.675146 3.781662
v -3.627062 29.802942 3.781662
v -3.791238 29.686850 3.631794
v -3.627062 29.570765 3.781662
v -0.642158 31.418295 3.781662
v -0.758248 31.582472 3.631794
v -0.874337 31.418295 3.781662
v 0.874337 31.418295 3.781662
v 0.758248 31.582472 3.631794
v 0.642158 31.418295 3.781662
v 2.390832 31.418295 3.781662
v 2.274743 31.582472 3.631794
v 2.158653 31.418295 3.781662
v -0.874337 24.164175 3.781662
v -0.758248 24.000000 3.631794
v -0.642158 24.164175 3.781662
v 0.642158 24.164175 3.781662
v 0.758248 24.000000 3.631794
v 0.874337 24.164175 3.781662
v 2.158653 24.164175 3.781662
v 2.274743 24.000000 3.631794
v 2.390832 24.164175 3.781662
v 2.121932 25.895618 3.934473
v 2.166258 25.742197 3.781662
v 2.395461 25.774900 3.781662
v 2.434911 26.008871 3.781662
v 2.274743 26.048426 3.934473
v 2.274743 27.679022 3.940360
v 2.433440 27.679022 3.781662
v 2.433440 27.903448 3.781662
v 2.274743 27.903448 3.940360
v 2.274743 29.534042 3.934473
v 2.428163 29.578365 3.781662
v 2.395461 29.807568 3.781662
v 2.161487 29.847017 3.781662
v 2.121932 29.686850 3.934473
v 0.758248 26.048426 3.934473
v 0.604827 26.004103 3.781662
v 0.637530 25.774900 3.781662
v 0.871503 25.735451 3.781662
v 0.911059 25.895618 3.934473
v 0.758248 27.903448 3.940360
v 0.599550 27.903448 3.781662
v 0.599550 27.679022 3.781662
v 0.758248 27.679022 3.940360
v 0.911059 29.686850 3.934473
v 0.866732 29.840275 3.781662
v 0.637530 29.807568 3.781662
v 0.598080 29.573597 3.781662
v 0.758248 29.534042 3.934473
v -0.911059 25.895618 3.934473
v -0.866732 25.742197 3.781662
v -0.637530 25.774900 3.781662
v -0.598080 26.008871 3.781662
v -0.758248 26.048426 3.934473
v -0.758248 27.679022 3.940360
v -0.599550 27.679022 3.781662
v -0.599550 27.903448 3.781662
v -0.758248 27.903448 3.940360
v -0.758248 29.534042 3.934473
v -0.604827 29.578365 3.781662
v -0.637530 29.807568 3.781662
v -0.871503 29.847017 3.781662
v -0.911059 29.686850 3.934473
v -2.274743 26.048426 3.934473
v -2.428163 26.004103 3.781662
v -2.395461 25.774900 3.781662
v -2.161487 25.735451 3.781662
v -2.121932 25.895618 3.934473
v -2.274743 27.903448 3.940360
v -2.433440 27.903448 3.781662
v -2.433440 27.679022 3.781662
v -2.274743 27.679022 3.940360
v -2.121932 29.686850 3.934473
v -2.166258 29.840275 3.781662
v -2.395461 29.807568 3.781662
v -2.434911 29.573597 3.781662
v -2.274743 29.534042 3.934473
v 0.758248 27.903448 4.257817
v 0.758248 27.679022 4.257817
v 0.916945 27.679022 4.416514
v 0.916945 27.903448 4.416514
v 2.116045 27.903448 4.416514
v 2.116045 27.679022 4.416514
v 2.274743 27.679022 4.257817
v 2.274743 27.903448 4.257817
v 0.916945 26.054312 4.416514
v 0.758248 26.054312 4.257817
v 0.916945 25.895618 4.257817
v 2.116045 26.054312 4.416514
v 2.116045 25.895618 4.257817
v 2.274743 26.054312 4.257817
v 0.916945 29.528156 4.416514
v 0.916945 29.686850 4.257817
v 0.758248 29.528156 4.257817
v 2.274743 29.528156 4.257817
v 2.116045 29.686850 4.257817
v 2.116045 29.528156 4.416514
v -2.274743 27.903448 4.257817
v -2.274743 27.679022 4.257817
v -2.116045 27.679022 4.416514
v -2.116045 27.903448 4.416514
v -0.916945 27.903448 4.416514
v -0.916945 27.679022 4.416514
v -0.758248 27.679022 4.257817
v -0.758248 27.903448 4.257817
v -2.116045 26.054312 4.416514
v -2.274743 26.054312 4.257817
v -2.116045 25.895618 4.257817
v -0.916945 26.054312 4.416514
v -0.916945 25.895618 4.257817
v -0.758248 26.054312 4.257817
v -2.116045 29.528156 4.416514
v -2.116045 29.686850 4.257817
v -2.274743 29.528156 4.257817
v -0.758248 29.528156 4.257817
v -0.916945 29.686850 4.257817
v -0.916945 29.528156 4.416514
vt 0.382031 0.987501
vt 0.375000 0.987501
vt 0.375000 0.762499
vt 0.382031 0.000000
vt 0.382031 0.004687
vt 0.625000 0.987501
vt 0.617969 0.987501
vt 0.625000 0.762499
vt 0.637499 0.004687
vt 0.375000 0.262499
vt 0.375000 0.487501
vt 0.382031 0.245313
vt 0.617969 0.245313
vt 0.625000 0.262499
vt 0.375000 0.504687
vt 0.375000 0.745313
vt 0.382031 0.487501
vt 0.617969 0.487501
vt 0.625000 0.504687
vt 0.625000 0.745313
vt 0.382031 0.745313
vt 0.617969 0.745313
vt 0.617969 0.762499
vt 0.617969 0.004687
vt 0.382031 0.262499
vt 0.617969 0.262499
vt 0.382031 0.504687
vt 0.617969 0.504687
vt 0.382031 0.762499
vt 0.862501 0.004687
vt 0.862501 0.245313
vt 0.137499 0.004687
vt 0.362501 0.004687
vt 0.362501 0.245313
vt 0.137499 0.245313
vt 0.617969 0.000000
vt 0.637499 0.245313
vt 0.625000 0.487501
vt 0.380232 0.994768
vt 0.375000 0.994768
vt 0.375000 0.755232
vt 0.380232 0.755232
vt 0.380232 0.005232
vt 0.380232 0.000000
vt 0.425000 0.000000
vt 0.421172 0.005413
vt 0.369768 0.005232
vt 0.380413 0.058672
vt 0.370059 0.062500
vt 0.428828 0.005413
vt 0.428734 0.057219
vt 0.421020 0.058520
vt 0.428828 1.000000
vt 0.425000 0.995059
vt 0.475000 0.995059
vt 0.471172 1.000000
vt 0.380232 0.244768
vt 0.369768 0.244768
vt 0.370059 0.187500
vt 0.380413 0.191328
vt 0.380232 0.255233
vt 0.421172 0.244587
vt 0.425000 0.254941
vt 0.375000 0.255233
vt 0.380232 0.494768
vt 0.375000 0.494768
vt 0.428828 0.244587
vt 0.421020 0.191480
vt 0.428577 0.192558
vt 0.471172 0.244587
vt 0.474999 0.254940
vt 0.375000 0.505232
vt 0.380232 0.505232
vt 0.380232 0.744768
vt 0.375000 0.744768
vt 0.619768 0.494768
vt 0.619768 0.505232
vt 0.625000 0.505232
vt 0.625000 0.744768
vt 0.619768 0.744768
vt 0.625000 0.494768
vt 0.619768 0.255233
vt 0.625000 0.255233
vt 0.619768 0.755232
vt 0.625000 0.755232
vt 0.625000 0.994768
vt 0.619768 0.994768
vt 0.380413 0.066328
vt 0.419942 0.066077
vt 0.380413 0.121172
vt 0.370059 0.125000
vt 0.619768 1.000000
vt 0.578828 1.000000
vt 0.575000 0.995059
vt 0.619768 0.005232
vt 0.630232 0.005232
vt 0.629941 0.062500
vt 0.619587 0.058672
vt 0.619587 0.066328
vt 0.580281 0.066234
vt 0.578980 0.058520
vt 0.629941 0.125000
vt 0.619587 0.121172
vt 0.619768 0.244768
vt 0.575000 0.254941
vt 0.578828 0.244587
vt 0.630232 0.244768
vt 0.619587 0.191328
vt 0.629941 0.187500
vt 0.619587 0.128828
vt 0.580232 0.128700
vt 0.580232 0.121300
vt 0.619587 0.183672
vt 0.578980 0.191480
vt 0.580058 0.183923
vt 0.380413 0.128828
vt 0.419768 0.121300
vt 0.419768 0.128700
vt 0.380413 0.183672
vt 0.419719 0.183766
vt 0.478828 0.244587
vt 0.471266 0.192781
vt 0.478980 0.191480
vt 0.521172 0.244587
vt 0.525000 0.254942
vt 0.528828 0.244587
vt 0.521020 0.191480
vt 0.528577 0.192558
vt 0.571172 0.244587
vt 0.571266 0.192781
vt 0.471172 0.005413
vt 0.478828 0.005413
vt 0.478980 0.058520
vt 0.471423 0.057442
vt 0.478828 1.000000
vt 0.525000 0.995059
vt 0.521172 1.000000
vt 0.521172 0.005413
vt 0.528828 0.005413
vt 0.528734 0.057219
vt 0.521020 0.058520
vt 0.528828 1.000000
vt 0.571172 1.000000
vt 0.571172 0.005413
vt 0.578828 0.005413
vt 0.571423 0.057442
vt 0.569962 0.062500
vt 0.575000 0.067538
vt 0.575000 0.067732
vt 0.569768 0.062500
vt 0.530038 0.062500
vt 0.575000 0.121300
vt 0.575000 0.128700
vt 0.575000 0.128700
vt 0.575000 0.121300
vt 0.575000 0.182462
vt 0.569962 0.187500
vt 0.569768 0.187500
vt 0.575000 0.182268
vt 0.530038 0.187500
vt 0.525000 0.067538
vt 0.530232 0.062500
vt 0.525000 0.067732
vt 0.519942 0.066077
vt 0.525000 0.121300
vt 0.519768 0.121300
vt 0.480281 0.066234
vt 0.525000 0.128700
vt 0.525000 0.121300
vt 0.525000 0.128700
vt 0.519768 0.128700
vt 0.525000 0.182462
vt 0.519719 0.183766
vt 0.480232 0.128700
vt 0.480232 0.121300
vt 0.525000 0.182268
vt 0.530232 0.187500
vt 0.480058 0.183923
vt 0.469962 0.062500
vt 0.475000 0.067538
vt 0.475000 0.067732
vt 0.469768 0.062500
vt 0.430038 0.062500
vt 0.475000 0.121300
vt 0.475000 0.128700
vt 0.475000 0.128700
vt 0.475000 0.121300
vt 0.475000 0.182462
vt 0.469962 0.187500
vt 0.469768 0.187500
vt 0.475000 0.182268
vt 0.430038 0.187500
vt 0.425000 0.067538
vt 0.430232 0.062500
vt 0.425000 0.067732
vt 0.425000 0.121300
vt 0.425000 0.128700
vt 0.425000 0.121300
vt 0.425000 0.128700
vt 0.425000 0.182462
vt 0.425000 0.182268
vt 0.430232 0.187500
vt 0.530232 0.128700
vt 0.530232 0.182268
vt 0.530232 0.121300
vt 0.530232 0.067732
vt 0.569768 0.121300
vt 0.569768 0.128700
vt 0.569768 0.182268
vt 0.569768 0.067732
vt 0.430232 0.128700
vt 0.430232 0.182268
vt 0.430232 0.121300
vt 0.430232 0.067732
vt 0.469768 0.121300
vt 0.469768 0.128700
vt 0.469768 0.182268
vt 0.469768 0.067732
vt 0.869768 0.005232
vt 0.869768 0.244768
vt 0.130232 0.005232
vt 0.130232 0.244768
vn -0.707107 -0.707107 0.000000
vn -0.707107 -0.707107 0.000000
vn -0.707107 -0.707107 0.000000
vn -0.707107 -0.707107 0.000000
vn 0.000000 -0.707107 0.707107
vn 0.000000 -0.707107 0.707107
vn 0.000000 -0.707107 0.707107
vn 0.000000 -0.707107 0.707107
vn -0.707107 0.000000 0.707107
vn -0.707107 0.000000 0.707107
vn -0.707107 0.000000 0.707107
vn -0.707107 0.000000 0.707107
vn 0.707107 -0.707107 0.000000
vn 0.707107 -0.707107 0.000000
vn 0.707107 -0.707107 0.000000
vn 0.707107 -0.707107 0.000000
vn 0.707107 0.000000 0.707107
vn 0.707107 0.000000 0.707107
vn 0.707107 0.000000 0.707107
vn 0.707107 0.000000 0.707107
vn -0.707107 0.707107 0.000000
vn -0.707107 0.707107 0.000000
vn -0.707107 0.707107 0.000000
vn -0.707107 0.707107 0.000000
vn 0.000000 0.707106 0.707107
vn 0.000000 0.707106 0.707107
vn 0.000000 0.707106 0.707107
vn 0.000000 0.707106 0.707107
vn 0.707107 0.707107 0.000000
vn 0.707107 0.707107 0.000000
vn 0.707107 0.707107 0.000000
vn 0.707107 0.707107 0.000000
vn -0.707107 0.000000 -0.707106
vn -0.707107 0.000000 -0.707106
vn -0.707107 0.000000 -0.707106
vn -0.707107 0.000000 -0.707106
vn 0.000000 0.707106 -0.707107
vn 0.000000 0.707106 -0.707107
vn 0.000000 0.707106 -0.707107
vn 0.000000 0.707106 -0.707107
vn 0.707107 0.000000 -0.707106
vn 0.707107 0.000000 -0.707106
vn 0.707107 0.000000 -0.707106
vn 0.707107 0.000000 -0.707106
vn 0.000000 -0.707107 -0.707107
vn 0.000000 -0.707107 -0.707107
vn 0.000000 -0.707107 -0.707107
vn 0.000000 -0.707107 -0.707107
vn 0.000000 0.000000 1.000000
vn 0.000000 0.000000 1.000000
vn 0.000000 0.000000 1.000000
vn 0.000000 0.000000 1.000000
vn 0.000000 1.000000 0.000000
vn 0.000000 1.000000 0.000000
vn 0.000000 1.000000 0.000000
vn 0.000000 1.000000 0.000000
vn 0.000000 0.000000 -1.000000
vn 0.000000 0.000000 -1.000000
vn 0.000000 0.000000 -1.000000
vn 0.000000 0.000000 -1.000000
vn 0.000000 -1.000000 0.000000
vn 0.000000 -1.000000 0.000000
vn 0.000000 -1.000000 0.000000
vn 0.000000 -1.000000 0.000000
vn 1.000000 0.000000 0.000000
vn 1.000000 0.000000 0.000000
vn 1.000000 0.000000 0.000000
vn 1.000000 0.000000 0.000000
vn -1.000000 0.000000 0.000000
vn -1.000000 0.000000 0.000000
vn -1.000000 0.000000 0.000000
vn -1.000000 0.000000 0.000000
vn -0.577350 -0.577351 0.577350
vn -0.577350 -0.577351 0.577350
vn -0.577350 -0.577351 0.577350
vn 0.577350 -0.577351 0.577350
vn 0.577350 -0.577351 0.577350
vn 0.577350 -0.577351 0.577350
vn -0.577350 0.577351 0.577350
vn -0.577350 0.577351 0.577350
vn -0.577350 0.577351 0.577350
vn 0.577350 0.577351 0.577350
vn 0.577350 0.577351 0.577350
vn 0.577350 0.577351 0.577350
vn -0.577351 0.577351 -0.577349
vn -0.577351 0.577351 -0.577349
vn -0.577351 0.577351 -0.577349
vn 0.577351 0.577351 -0.577349
vn 0.577351 0.577351 -0.577349
vn 0.577351 0.577351 -0.577349
vn -0.577351 -0.577351 -0.577350
vn -0.577351 -0.577351 -0.577350
vn -0.577351 -0.577351 -0.577350
vn 0.577351 -0.577351 -0.577350
vn 0.577351 -0.577351 -0.577350
vn 0.577351 -0.577351 -0.577350
vn -0.707107 -0.707107 0.000000
vn -0.707107 -0.707107 0.000000
vn -0.707107 -0.707107 0.000000
vn -0.707107 -0.707107 0.000000
vn -0.000998 -0.691099 0.722760
vn -0.000998 -0.691099 0.722760
vn -0.000465 -0.682122 0.731238
vn -0.000953 -0.690345 0.723480
vn -0.691052 -0.000773 0.722805
vn -0.691052 -0.000773 0.722805
vn -0.690464 -0.000746 0.723367
vn -0.682222 -0.000366 0.731145
vn 0.000000 0.000000 1.000000
vn 0.000000 0.000000 1.000000
vn 0.000000 0.000000 1.000000
vn -0.000000 0.000000 1.000000
vn 0.000000 -0.674199 0.738550
vn 0.000000 -0.674198 0.738551
vn 0.000000 -0.674199 0.738550
vn -0.691052 0.000773 0.722805
vn -0.691052 0.000773 0.722805
vn -0.682222 0.000366 0.731145
vn -0.690463 0.000746 0.723367
vn -0.000999 0.691092 0.722766
vn -0.000999 0.691092 0.722766
vn -0.000954 0.690338 0.723486
vn -0.000466 0.682113 0.731247
vn -0.707111 0.707102 0.000000
vn -0.707111 0.707102 0.000000
vn -0.707111 0.707102 0.000000
vn -0.707111 0.707102 0.000000
vn -0.000000 0.000000 1.000000
vn 0.000000 0.000000 1.000000
vn -0.000000 0.000000 1.000000
vn -0.000000 0.000000 1.000000
vn 0.000000 0.674187 0.738561
vn 0.000000 0.674187 0.738561
vn 0.000000 0.674190 0.738558
vn -0.707109 0.000000 -0.707105
vn -0.707109 0.000000 -0.707105
vn -0.707109 0.000000 -0.707105
vn -0.707109 0.000000 -0.707105
vn 0.000000 0.707102 -0.707111
vn 0.000000 0.707102 -0.707111
vn 0.000000 0.707102 -0.707111
vn 0.000000 0.707102 -0.707111
vn 0.707109 0.000000 -0.707105
vn 0.707109 0.000000 -0.707105
vn 0.707109 0.000000 -0.707105
vn 0.707109 0.000000 -0.707105
vn 0.707111 0.707102 0.000000
vn 0.707111 0.707102 0.000000
vn 0.707111 0.707102 0.000000
vn 0.707111 0.707102 0.000000
vn 0.000000 -0.707107 -0.707107
vn 0.000000 -0.707107 -0.707107
vn 0.000000 -0.707107 -0.707107
vn 0.000000 -0.707107 -0.707107
vn 0.707107 -0.707107 0.000000
vn 0.707107 -0.707107 0.000000
vn 0.707107 -0.707107 0.000000
vn 0.707107 -0.707107 0.000000
vn 0.000000 0.000000 1.000000
vn -0.000000 0.000000 1.000000
vn 0.000000 0.000000 1.000000
vn -0.674192 0.000000 0.738556
vn -0.674192 0.000000 0.738556
vn -0.674192 0.000000 0.738556
vn 0.000999 -0.691099 0.722760
vn 0.000999 -0.691099 0.722760
vn 0.000953 -0.690345 0.723480
vn 0.000465 -0.682122 0.731238
vn 0.691052 -0.000773 0.722804
vn 0.691052 -0.000773 0.722805
vn 0.682222 -0.000366 0.731145
vn 0.690464 -0.000746 0.723366
vn 0.000000 0.000000 1.000000
vn 0.000000 0.000000 1.000000
vn 0.000000 0.000000 1.000000
vn 0.000000 0.000000 1.000000
vn 0.674192 0.000000 0.738556
vn 0.674192 0.000000 0.738556
vn 0.674192 0.000000 0.738556
vn 0.000999 0.691092 0.722766
vn 0.000999 0.691092 0.722766
vn 0.000465 0.682113 0.731247
vn 0.000954 0.690338 0.723486
vn 0.691052 0.000773 0.722805
vn 0.691052 0.000773 0.722805
vn 0.690464 0.000746 0.723367
vn 0.682222 0.000366 0.731145
vn 0.000000 0.000000 1.000000
vn -0.000000 0.000000 1.000000
vn -0.000000 0.000000 1.000000
vn 0.000000 0.000000 1.000000
vn 0.674192 0.000000 0.738556
vn 0.674192 0.000000 0.738556
vn -0.000000 0.000000 1.000000
vn 0.000000 0.000000 1.000000
vn 0.000000 0.000000 1.000000
vn -0.000000 0.000000 1.000000
vn -0.000000 0.000000 1.000000
vn 0.000000 0.000000 1.000000
vn 0.000000 0.000000 1.000000
vn -0.000000 0.000000 1.000000
vn -0.674192 0.000000 0.738556
vn -0.674192 0.000000 0.738556
vn -0.000000 0.000000 1.000000
vn -0.000000 0.000000 1.000000
vn -0.000000 0.000000 1.000000
vn 0.000000 0.000000 1.000000
vn -0.000000 0.000000 1.000000
vn -0.000000 0.000000 1.000000
vn -0.000000 0.000000 1.000000
vn 0.000000 0.674193 0.738555
vn 0.000000 0.674193 0.738555
vn 0.000000 0.674190 0.738558
vn -0.000000 0.000000 1.000000
vn 0.000000 0.000000 1.000000
vn -0.000000 0.000000 1.000000
vn -0.000000 0.000000 1.000000
vn 0.000000 0.674187 0.738561
vn 0.000000 0.674187 0.738561
vn 0.000000 0.000000 1.000000
vn -0.000000 0.000000 1.000000
vn -0.000000 0.000000 1.000000
vn 0.000000 0.000000 1.000000
vn 0.000000 0.000000 1.000000
vn 0.000000 0.000000 1.000000
vn 0.000000 0.000000 1.000000
vn 0.000000 -0.674196 0.738552
vn 0.000000 -0.674198 0.738551
vn 0.000000 -0.674196 0.738552
vn 0.000000 0.000000 1.000000
vn 0.000000 0.000000 1.000000
vn 0.000000 0.000000 1.000000
vn 0.000000 0.000000 1.000000
vn 0.000000 -0.674199 0.738550
vn 0.000000 -0.674199 0.738550
vn 0.000000 0.000000 1.000000
vn 0.000000 0.000000 1.000000
vn 0.000000 0.000000 1.000000
vn 0.707040 -0.707057 0.012867
vn 0.707040 -0.707057 0.012867
vn 0.707040 -0.707057 0.012867
vn 0.707040 -0.707057 0.012867
vn 0.108552 -0.633163 0.766369
vn 0.099776 -0.638973 0.762731
vn -0.099764 -0.637302 0.764130
vn -0.103055 -0.635147 0.765485
vn 0.651399 -0.080991 0.754400
vn 0.649668 -0.083705 0.755596
vn 0.699757 -0.000848 0.714380
vn 0.699759 -0.000848 0.714378
vn 1.000000 0.000000 0.000000
vn 1.000000 0.000000 0.000000
vn 1.000000 0.000000 0.000000
vn 1.000000 0.000000 0.000000
vn 0.706349 0.002098 0.707861
vn 0.706349 0.002098 0.707861
vn 0.653946 0.088059 0.751399
vn 0.658966 0.080404 0.747863
vn 0.707040 0.707057 0.012874
vn 0.707040 0.707057 0.012874
vn 0.707040 0.707057 0.012874
vn 0.707040 0.707057 0.012874
vn 0.099765 0.637295 0.764135
vn 0.103055 0.635141 0.765490
vn -0.108552 0.633158 0.766373
vn -0.099777 0.638968 0.762735
vn -0.707040 -0.707057 0.012867
vn -0.707040 -0.707057 0.012867
vn -0.707040 -0.707057 0.012867
vn -0.707040 -0.707057 0.012867
vn -0.653946 -0.088059 0.751399
vn -0.658966 -0.080403 0.747863
vn -0.706348 -0.002098 0.707861
vn -0.706348 -0.002098 0.707861
vn 0.000000 0.000000 1.000000
vn 0.000000 0.000000 1.000000
vn -1.000000 0.000000 0.000000
vn -1.000000 0.000000 0.000000
vn -1.000000 0.000000 0.000000
vn -1.000000 0.000000 0.000000
vn -0.699757 0.000848 0.714380
vn -0.699759 0.000848 0.714378
vn -0.651399 0.080991 0.754400
vn -0.649668 0.083705 0.755596
vn 0.000000 0.000000 1.000000
vn 0.000000 0.000000 1.000000
vn 0.000000 0.000000 1.000000
vn 0.000000 0.000000 1.000000
vn -0.707040 0.707057 0.012877
vn -0.707040 0.707057 0.012877
vn -0.707040 0.707057 0.012877
vn -0.707040 0.707057 0.012877
vn -0.000000 0.000000 1.000000
vn -0.000000 0.000000 1.000000
vn 0.707040 -0.707057 0.012867
vn 0.707040 -0.707057 0.012867
vn 0.707040 -0.707057 0.012867
vn 0.707040 -0.707057 0.012867
vn 0.108552 -0.633162 0.766370
vn 0.099776 -0.638972 0.762731
vn -0.099764 -0.637301 0.764130
vn -0.103055 -0.635146 0.765486
vn 0.651398 -0.080990 0.754401
vn 0.649667 -0.083705 0.755597
vn 0.699757 -0.000848 0.714380
vn 0.699759 -0.000848 0.714378
vn 1.000000 0.000000 0.000000
vn 1.000000 0.000000 0.000000
vn 1.000000 0.000000 0.000000
vn 1.000000 0.000000 0.000000
vn 0.706349 0.002098 0.707861
vn 0.706349 0.002098 0.707861
vn 0.653946 0.088059 0.751399
vn 0.658966 0.080404 0.747863
vn 0.707040 0.707057 0.012874
vn 0.707040 0.707057 0.012874
vn 0.707040 0.707057 0.012874
vn 0.707040 0.707057 0.012874
vn 0.099765 0.637295 0.764134
vn 0.103055 0.635141 0.765490
vn -0.108552 0.633158 0.766373
vn -0.099777 0.638968 0.762735
vn -0.707040 -0.707057 0.012867
vn -0.707040 -0.707057 0.012867
vn -0.707040 -0.707057 0.012867
vn -0.707040 -0.707057 0.012867
vn -0.653946 -0.088059 0.751399
vn -0.658965 -0.080403 0.747864
vn -0.706349 -0.002098 0.707861
vn -0.706349 -0.002098 0.707861
vn -1.000000 0.000000 0.000000
vn -1.000000 0.000000 0.000000
vn -1.000000 0.000000 0.000000
vn -1.000000 0.000000 0.000000
vn -0.699757 0.000848 0.714380
vn -0.699759 0.000848 0.714379
vn -0.651399 0.080991 0.754400
vn -0.649668 0.083705 0.755596
vn -0.707040 0.707057 0.012877
vn -0.707040 0.707057 0.012877
vn -0.707040 0.707057 0.012877
vn -0.707040 0.707057 0.012877
vn -0.707107 0.000000 0.707106
vn -0.707107 0.000000 0.707106
vn -0.707107 0.000000 0.707107
vn -0.707107 0.000000 0.707107
vn -0.707107 0.000000 0.707106
vn -0.707107 0.000000 0.707106
vn -0.707107 0.000000 0.707107
vn -0.707107 0.000000 0.707107
vn 0.000000 0.000000 1.000000
vn 0.000000 0.000000 1.000000
vn 0.000000 0.000000 1.000000
vn 0.000000 0.000000 1.000000
vn 0.707107 0.000000 0.707106
vn 0.707107 0.000000 0.707106
vn 0.707107 0.000000 0.707107
vn 0.707107 0.000000 0.707107
vn 0.707107 0.000000 0.707106
vn 0.707107 0.000000 0.707106
vn 0.707107 0.000000 0.707107
vn 0.707107 0.000000 0.707107
vn 0.000000 -0.707113 0.707101
vn 0.000000 -0.707113 0.707101
vn 0.000000 -0.707113 0.707101
vn 0.000000 -0.707113 0.707101
vn 0.000000 0.707117 0.707097
vn 0.000000 0.707117 0.707097
vn 0.000000 0.707117 0.707097
vn 0.000000 0.707117 0.707097
vn -0.707107 0.000000 0.707106
vn -0.707107 0.000000 0.707106
vn -0.707107 0.000000 0.707107
vn -0.707107 0.000000 0.707107
vn -0.707107 0.000000 0.707106
vn -0.707107 0.000000 0.707106
vn -0.707107 0.000000 0.707107
vn -0.707107 0.000000 0.707107
vn 0.000000 0.000000 1.000000
vn 0.000000 0.000000 1.000000
vn 0.000000 0.000000 1.000000
vn 0.000000 0.000000 1.000000
vn 0.707107 0.000000 0.707106
vn 0.707107 0.000000 0.707106
vn 0.707107 0.000000 0.707107
vn 0.707107 0.000000 0.707107
vn 0.707107 0.000000 0.707106
vn 0.707107 0.000000 0.707106
vn 0.707107 0.000000 0.707107
vn 0.707107 0.000000 0.707107
vn 0.000000 -0.707113 0.707101
vn 0.000000 -0.707113 0.707101
vn 0.000000 -0.707113 0.707101
vn 0.000000 -0.707113 0.707101
vn 0.000000 0.707117 0.707097
vn 0.000000 0.707117 0.707097
vn 0.000000 0.707117 0.707097
vn 0.000000 0.707117 0.707097
vn 0.000000 0.000000 1.000000
vn 0.000000 1.000000 0.000000
vn 0.000000 1.000000 0.000000
vn 0.000000 1.000000 0.000000
vn 0.000000 1.000000 0.000000
vn 0.000000 1.000000 0.000000
vn 0.000000 1.000000 0.000000
vn 0.000000 1.000000 0.000000
vn 0.000000 1.000000 0.000000
vn 0.000000 0.000000 -1.000000
vn 0.000000 0.000000 -1.000000
vn 0.000000 0.000000 -1.000000
vn 0.000000 0.000000 -1.000000
vn 0.000000 -1.000000 0.000000
vn 0.000000 -1.000000 0.000000
vn 0.000000 -1.000000 0.000000
vn 0.000000 -1.000000 0.000000
vn 0.000000 -1.000000 0.000000
vn 0.000000 -1.000000 0.000000
vn 0.000000 -1.000000 0.000000
vn 0.000000 -1.000000 0.000000
vn 1.000000 0.000000 0.000000
vn 1.000000 0.000000 0.000000
vn 1.000000 0.000000 0.000000
vn 1.000000 0.000000 0.000000
vn 1.000000 0.000000 0.000000
vn 1.000000 0.000000 0.000000
vn 1.000000 0.000000 0.000000
vn -1.000000 0.000000 0.000000
vn -1.000000 0.000000 0.000000
vn -1.000000 0.000000 0.000000
vn -1.000000 0.000000 0.000000
vn -1.000000 0.000000 0.000000
vn -1.000000 0.000000 0.000000
vn -1.000000 0.000000 0.000000
vn 0.000000 0.000000 1.000000
vn 0.000000 0.000000 1.000000
vn 0.000000 0.000000 1.000000
vn 0.000000 0.000000 1.000000
vn 0.000000 0.000000 1.000000
vn 0.000000 0.000000 1.000000
vn 0.000000 0.000000 1.000000
vn 0.000000 0.000000 1.000000
vn 0.000000 0.000000 1.000000
vn 0.000000 0.000000 1.000000
vn 0.000000 0.000000 1.000000
vn -1.000000 0.000000 0.000000
vn -1.000000 0.000000 0.000000
vn 0.000000 -1.000000 -0.000001
vn 0.000000 -1.000000 -0.000001
vn 0.000000 -1.000000 -0.000001
vn 0.000000 -1.000000 -0.000001
vn 1.000000 0.000000 0.000000
vn 1.000000 0.000000 0.000000
vn 0.000000 1.000000 0.000002
vn 0.000000 1.000000 0.000002
vn 0.000000 1.000000 0.000002
vn 0.000000 1.000000 0.000002
vn -1.000000 0.000000 0.000000
vn -1.000000 0.000000 0.000000
vn 1.000000 0.000000 0.000000
vn 1.000000 0.000000 0.000000
vn -1.000000 0.000000 0.000000
vn -1.000000 0.000000 0.000000
vn 0.000000 -1.000000 -0.000001
vn 0.000000 -1.000000 -0.000001
vn 0.000000 -1.000000 -0.000001
vn 0.000000 -1.000000 -0.000001
vn 1.000000 0.000000 0.000000
vn 1.000000 0.000000 0.000000
vn 0.000000 1.000000 0.000002
vn 0.000000 1.000000 0.000002
vn 0.000000 1.000000 0.000002
vn 0.000000 1.000000 0.000002
vn -1.000000 0.000000 0.000000
vn -1.000000 0.000000 0.000000
vn 1.000000 0.000000 0.000000
vn 1.000000 0.000000 0.000000
vn -0.577351 -0.577353 0.577347
vn -0.577351 -0.577353 0.577347
vn -0.577351 -0.577353 0.577347
vn -0.577355 0.577351 0.577345
vn -0.577355 0.577351 0.577345
vn -0.577355 0.577351 0.577345
vn -0.577358 0.577349 -0.577344
vn -0.577358 0.577349 -0.577344
vn -0.577358 0.577349 -0.577344
vn 0.577358 0.577349 -0.577344
vn 0.577358 0.577349 -0.577344
vn 0.577358 0.577349 -0.577344
vn -0.577354 -0.577351 -0.577346
vn -0.577354 -0.577351 -0.577346
vn -0.577354 -0.577351 -0.577346
vn 0.577354 -0.577351 -0.577346
vn 0.577354 -0.577351 -0.577346
vn 0.577354 -0.577351 -0.577346
vn 0.577351 -0.577353 0.577347
vn 0.577351 -0.577353 0.577347
vn 0.577351 -0.577353 0.577347
vn 0.577355 0.577351 0.577345
vn 0.577355 0.577351 0.577345
vn 0.577355 0.577351 0.577345
vn 0.392118 -0.393971 0.831282
vn 0.393965 0.392122 0.831283
vn -0.393966 -0.392124 0.831282
vn -0.392122 0.393972 0.831280
vn 0.392116 -0.393969 0.831284
vn 0.393965 0.392123 0.831283
vn -0.393964 -0.392121 0.831284
vn -0.392122 0.393971 0.831280
vn -0.577342 -0.577356 0.577353
vn -0.577342 -0.577356 0.577353
vn -0.577342 -0.577356 0.577353
vn 0.577342 -0.577357 0.577353
vn 0.577342 -0.577357 0.577353
vn 0.577342 -0.577357 0.577353
vn -0.577349 0.577363 0.577338
vn -0.577349 0.577363 0.577338
vn -0.577349 0.577363 0.577338
vn 0.577349 0.577364 0.577338
vn 0.577349 0.577364 0.577338
vn 0.577349 0.577364 0.577338
vn -0.577342 -0.577357 0.577353
vn -0.577342 -0.577357 0.577353
vn -0.577342 -0.577357 0.577353
vn 0.577342 -0.577356 0.577353
vn 0.577342 -0.577356 0.577353
vn 0.577342 -0.577356 0.577353
vn -0.577349 0.577364 0.577338
vn -0.577349 0.577364 0.577338
vn -0.577349 0.577364 0.577338
vn 0.577349 0.577363 0.577338
vn 0.577349 0.577363 0.577338
vn 0.577349 0.577363 0.577338
s off
g bot_player
usemtl initialShadingGroup
f 1/1/1 3/2/2 19/3/3 21/29/4
f 2/5/5 1/4/6 6/36/7 5/24/8
f 3/33/9 2/5/10 8/12/11 7/34/12
f 4/6/13 6/7/14 22/23/15 24/8/16
f 5/24/17 4/9/18 12/37/19 11/13/20
f 7/10/21 9/25/22 14/17/23 13/11/24
f 9/25/25 8/12/26 11/13/27 10/26/28
f 10/26/29 12/14/30 18/38/31 17/18/32
f 13/15/33 15/27/34 20/21/35 19/16/36
f 15/27/37 14/17/38 17/18/39 16/28/40
f 16/28/41 18/19/42 24/20/43 23/22/44
f 21/29/45 20/21/46 23/22/47 22/23/48
f 2/5/49 5/24/50 11/13/51 8/12/52
f 9/25/53 10/26/54 17/18/55 14/17/56
f 15/27/57 16/28/58 23/22/59 20/21/60
f 21/29/61 22/23/62 6/7/63 1/1/64
f 4/9/65 24/30/66 18/31/67 12/37/68
f 19/32/69 3/33/70 7/34/71 13/35/72
f 1/4/73 2/5/74 3/33/75
f 4/9/76 5/24/77 6/36/78
f 7/34/79 8/12/80 9/25/81
f 10/26/82 11/13/83 12/37/84
f 13/11/85 14/17/86 15/27/87
f 16/28/88 17/18/89 18/38/90
f 19/16/91 20/21/92 21/29/93
f 22/23/94 23/22/95 24/20/96
f 25/39/97 27/40/98 43/41/99 45/42/100
s 1
f 26/43/101 25/44/102 29/45/103 28/46/104
s 2
f 27/47/105 26/43/106 51/48/107 50/49/108
s 3
f 28/46/109 30/50/110 136/51/111 135/52/112
s 1
f 30/53/113 29/54/103 83/55/114 82/56/115
s 2
f 31/57/116 33/58/117 71/59/118 70/60/119
s 5
f 32/61/120 31/57/121 36/62/122 35/63/123
s off
f 33/64/124 32/61/125 38/65/126 37/66/127
s 3
f 34/67/128 36/62/129 144/68/130 143/69/131
s 5
f 35/63/123 34/67/132 75/70/133 74/71/134
s off
f 37/72/135 39/73/136 44/74/137 43/75/138
f 39/73/139 38/65/140 41/76/141 40/77/142
f 40/77/143 42/78/144 48/79/145 47/80/146
f 42/81/147 41/76/148 60/82/149 59/83/150
f 45/42/151 44/74/152 47/80/153 46/84/154
f 46/84/155 48/85/156 53/86/157 52/87/158
s 3
f 49/88/159 51/48/160 135/52/112 134/89/161
s 2
f 50/49/108 49/88/162 69/90/163 68/91/164
s 1
f 52/87/165 54/92/166 90/93/167 89/94/168
s 8
f 54/95/169 53/96/170 56/97/171 55/98/172
s 3
f 55/98/173 57/99/174 94/100/175 93/101/176
s 8
f 57/99/177 56/97/171 62/102/178 61/103/179
s 5
f 58/104/180 60/82/181 80/105/182 79/106/183
s 8
f 59/107/184 58/104/185 66/108/186 65/109/187
s 3
f 61/103/188 63/110/189 98/111/190 97/112/191
s 8
f 63/110/192 62/102/178 65/109/187 64/113/193
s 3
f 64/113/194 66/108/195 102/114/196 101/115/197
f 67/116/198 69/90/199 140/117/200 139/118/201
s 2
f 68/91/164 67/116/202 72/119/203 71/59/118
s 3
f 70/60/204 72/119/205 145/120/206 144/68/130
f 73/121/207 75/70/208 131/122/209 130/123/210
s 5
f 74/71/134 73/121/211 78/124/212 77/125/213
s 3
f 76/126/214 78/124/215 116/127/216 115/128/217
s 5
f 77/125/213 76/126/218 81/129/219 80/105/182
s 3
f 79/106/220 81/129/221 103/130/222 102/114/196
f 82/131/223 84/132/224 121/133/225 120/134/226
s 1
f 84/135/227 83/55/114 86/136/228 85/137/229
s 3
f 85/138/230 87/139/231 108/140/232 107/141/233
s 1
f 87/142/234 86/136/228 89/94/168 88/143/235
s 3
f 88/144/236 90/145/237 93/101/176 92/146/238
s off
f 91/147/239 95/148/240 160/149/241 159/150/242
s 16
f 92/146/243 91/147/244 109/151/245 108/140/246
f 95/148/247 94/100/248 97/112/249 96/152/250
s 17
f 96/152/251 99/153/252 154/154/253 153/155/254
s 16
f 99/153/255 98/111/256 101/115/257 100/156/258
s off
f 100/156/259 104/157/260 165/158/261 164/159/262
s 16
f 104/157/263 103/130/264 115/128/265 114/160/266
s off
f 105/161/267 109/151/268 157/162/269 156/163/270
s 16
f 106/164/271 105/161/272 113/165/273 112/166/274
s 3
f 107/141/233 106/164/275 122/167/276 121/133/225
s 19
f 110/168/277 113/165/278 148/169/279 147/170/280
s 16
f 111/171/281 110/168/282 118/172/283 117/173/284
s 3
f 112/166/285 111/171/286 126/174/287 125/175/288
s off
f 114/160/289 118/172/290 163/176/291 162/177/292
s 3
f 117/173/293 116/127/216 130/123/210 129/178/294
s off
f 119/179/295 123/180/296 180/181/297 179/182/298
s 21
f 120/134/299 119/179/300 137/183/301 136/51/302
f 123/180/303 122/167/304 125/175/305 124/184/306
s 22
f 124/184/307 127/185/308 174/186/309 173/187/310
s 21
f 127/185/311 126/174/312 129/178/313 128/188/314
s off
f 128/188/315 132/189/316 185/190/317 184/191/318
s 21
f 132/189/319 131/122/320 143/69/321 142/192/322
s off
f 133/193/323 137/183/324 177/194/325 176/195/326
s 21
f 134/89/327 133/193/328 141/196/329 140/117/330
s 23
f 138/197/331 141/196/332 168/198/333 167/199/334
s 21
f 139/118/335 138/197/336 146/200/337 145/120/338
s off
f 142/192/339 146/200/340 183/201/341 182/202/342
s 24
f 147/170/343 150/203/344 161/204/345 163/176/346
f 149/205/347 148/169/348 156/163/349 155/206/350
s 25
f 150/203/351 149/205/352 152/207/353 151/208/354
s 26
f 151/208/355 154/154/356 164/159/357 166/209/358
f 153/155/359 152/207/360 158/210/361 160/149/362
s off
f 155/206/363 157/162/364 159/150/365 158/210/366
f 162/177/367 161/204/368 166/209/369 165/158/370
s 27
f 167/199/371 170/211/372 181/212/373 183/201/374
f 169/213/375 168/198/376 176/195/377 175/214/378
s 28
f 170/211/379 169/213/380 172/215/381 171/216/382
s 29
f 171/216/383 174/186/384 184/191/385 186/217/386
f 173/187/387 172/215/388 178/218/389 180/181/390
s off
f 175/214/391 177/194/392 179/182/393 178/218/394
f 182/202/395 181/212/396 186/217/397 185/190/398
s 3
f 26/43/399 28/46/109 135/52/112 51/48/160
s off
f 32/61/400 35/63/401 74/71/402 77/125/403 80/105/404 60/82/405 41/76/406 38/65/407
f 39/73/408 40/77/409 47/80/410 44/74/411
f 45/42/412 46/84/413 52/87/414 89/94/415 86/136/416 83/55/417 29/54/418 25/39/419
f 53/96/420 48/219/421 42/220/422 59/107/423 65/109/424 62/102/425 56/97/426
f 43/221/427 27/47/428 50/49/429 68/91/430 71/59/431 33/58/432 37/222/433
s 3
f 79/106/220 102/114/196 66/108/195 58/104/434
f 55/98/173 93/101/176 90/145/237 54/95/435
f 61/103/188 97/112/191 94/100/175 57/99/174
f 64/113/194 101/115/197 98/111/190 63/110/189
f 76/126/214 115/128/217 103/130/222 81/129/221
f 92/146/238 108/140/232 87/139/231 88/144/236
s 25
f 152/207/353 149/205/352 155/206/436 158/210/437
f 166/209/438 161/204/439 150/203/351 151/208/354
s 3
f 73/121/207 130/123/210 116/127/216 78/124/215
f 107/141/233 121/133/225 84/132/224 85/138/230
f 112/166/285 125/175/288 122/167/276 106/164/275
f 117/173/293 129/178/294 126/174/287 111/171/286
f 34/67/128 143/69/131 131/122/209 75/70/208
f 120/134/226 136/51/111 30/50/110 82/131/223
s 28
f 172/215/381 169/213/380 175/214/440 178/218/441
f 186/217/442 181/212/443 170/211/379 171/216/382
s 3
f 70/60/204 144/68/130 36/62/129 31/57/444
f 67/116/198 139/118/201 145/120/206 72/119/205
f 49/88/159 134/89/161 140/117/200 69/90/199
s 19
f 113/165/278 105/161/445 156/163/446 148/169/279
s off
f 109/151/447 91/147/448 159/150/449 157/162/450
s 17
f 95/148/451 96/152/251 153/155/254 160/149/452
s off
f 104/157/453 114/160/454 162/177/455 165/158/456
s 19
f 118/172/457 110/168/277 147/170/280 163/176/458
s 17
f 99/153/252 100/156/459 164/159/460 154/154/253
s 23
f 141/196/332 133/193/461 176/195/462 168/198/333
s off
f 137/183/463 119/179/464 179/182/465 177/194/466
s 22
f 123/180/467 124/184/307 173/187/310 180/181/468
s off
f 132/189/469 142/192/470 182/202/471 185/190/472
s 23
f 146/200/473 138/197/331 167/199/334 183/201/474
s 22
f 127/185/308 128/188/475 184/191/476 174/186/309
s off
f 25/44/477 26/43/478 27/47/479
s 1
f 28/46/104 29/45/103 30/50/113
s off
f 31/57/480 32/61/481 33/64/482
s 5
f 34/67/132 35/63/123 36/62/122
s off
f 37/66/483 38/65/484 39/73/485
f 40/77/486 41/76/487 42/81/488
f 43/75/489 44/74/490 45/42/491
f 46/84/492 47/80/493 48/79/494
s 2
f 49/88/162 50/49/108 51/48/107
s off
f 52/87/495 53/86/496 54/92/497
s 8
f 55/98/172 56/97/171 57/99/177
s off
f 58/104/498 59/83/499 60/82/500
s 8
f 61/103/179 62/102/178 63/110/192
f 64/113/193 65/109/187 66/108/186
s 2
f 67/116/202 68/91/164 69/90/163
f 70/60/119 71/59/118 72/119/203
s 5
f 73/121/211 74/71/134 75/70/133
f 76/126/218 77/125/213 78/124/212
f 79/106/183 80/105/182 81/129/219
s 1
f 82/56/115 83/55/114 84/135/227
f 85/137/229 86/136/228 87/142/234
f 88/143/235 89/94/168 90/93/167
s 16
f 91/147/244 92/146/243 93/101/501 94/100/248 95/148/247
f 96/152/250 97/112/249 98/111/256 99/153/255
f 100/156/258 101/115/257 102/114/502 103/130/264 104/157/263
f 105/161/272 106/164/271 107/141/503 108/140/246 109/151/245
f 110/168/282 111/171/281 112/166/274 113/165/273
f 114/160/266 115/128/265 116/127/504 117/173/284 118/172/283
s 21
f 119/179/300 120/134/299 121/133/505 122/167/304 123/180/303
f 124/184/306 125/175/305 126/174/312 127/185/311
f 128/188/314 129/178/313 130/123/506 131/122/320 132/189/319
f 133/193/328 134/89/327 135/52/507 136/51/302 137/183/301
f 138/197/336 139/118/335 140/117/330 141/196/329
f 142/192/322 143/69/321 144/68/508 145/120/338 146/200/337
s 24
f 147/170/343 148/169/348 149/205/347 150/203/344
s 26
f 151/208/355 152/207/360 153/155/359 154/154/356
s off
f 155/206/509 156/163/510 157/162/511
f 158/210/512 159/150/513 160/149/514
f 161/204/515 162/177/516 163/176/517
f 164/159/518 165/158/519 166/209/520
s 27
f 167/199/371 168/198/376 169/213/375 170/211/372
s 29
f 171/216/383 172/215/388 173/187/387 174/186/384
s off
f 175/214/521 176/195/522 177/194/523
f 178/218/524 179/182/525 180/181/526
f 181/212/527 182/202/528 183/201/529
f 184/191/530 185/190/531 186/217/532
